<?xml version="1.0" standalone="no"?><!DOCTYPE svg PUBLIC "-//W3C//DTD SVG 1.1//EN" "http://www.w3.org/Graphics/SVG/1.1/DTD/svg11.dtd"><svg xmlns:xlink="http://www.w3.org/1999/xlink" version="1.1" class="highcharts-root" style="font-family:&quot;Lucida Grande&quot;, &quot;Lucida Sans Unicode&quot;, Arial, Helvetica, sans-serif;font-size:12px;" xmlns="http://www.w3.org/2000/svg" width="600" height="380" viewBox="0 0 600 380"><desc>Created with ForrestSu.github.io</desc><defs><clipPath id="highcharts-xg2w4zr-14-"><rect x="0" y="0" width="600" height="320" fill="none"></rect></clipPath></defs><rect fill="#ffffff" class="highcharts-background" x="0" y="0" width="600" height="380" rx="0" ry="0"></rect><rect fill="none" class="highcharts-plot-background" x="0" y="40" width="600" height="320"></rect><rect fill="none" class="highcharts-plot-border" data-z-index="1" x="0" y="40" width="600" height="320"></rect><g class="highcharts-series-group" data-z-index="3"><g class="highcharts-series highcharts-series-0 highcharts-pie-series" data-z-index="0.1" opacity="1" transform="translate(0,40) scale(1 1)" clip-path="none"><path fill="#696969" d="M 299.9708747318716 26.00000296601837 A 143 143 0 0 1 422.43122549033154 95.11092756749751 L 385.70185784323206 117.27764929724827 A 100.1 100.1 0 0 0 299.9796123123101 68.90000207621286 Z" transform="translate(4,-7)" stroke="#ffffff" stroke-width="1" opacity="1" stroke-linejoin="round" class="highcharts-point highcharts-color-0"></path><path fill="#6AA4E7" d="M 422.50505333484153 95.23339571711578 A 143 143 0 0 1 227.06767731940425 292.0035621777413 L 248.947374123583 255.1024935244189 A 100.1 100.1 0 0 0 385.7535373343891 117.36337700198106 Z" transform="translate(0,0)" stroke="#ffffff" stroke-width="1" opacity="1" stroke-linejoin="round" class="highcharts-point highcharts-color-1"></path><path fill="#82ED6B" d="M 226.94471024388542 291.9305683654401 A 143 143 0 0 1 163.9739017514084 213.11236329267 L 204.78173122598588 199.878654304869 A 100.1 100.1 0 0 0 248.8612971707198 255.05139785580806 Z" transform="translate(0,0)" stroke="#ffffff" stroke-width="1" opacity="1" stroke-linejoin="round" class="highcharts-point highcharts-color-2"></path><path fill="#F2924A" d="M 163.92985740851123 212.97631516091263 A 143 143 0 0 1 299.80137586885576 26.0001379425332 L 299.86096310819903 68.90009655977326 A 100.1 100.1 0 0 0 204.75090018595787 199.78342061263885 Z" transform="translate(0,0)" stroke="#ffffff" stroke-width="1" opacity="1" stroke-linejoin="round" class="highcharts-point highcharts-color-3"></path></g><g class="highcharts-markers highcharts-series-0 highcharts-pie-series" data-z-index="0.1" opacity="1" transform="translate(0,40) scale(1 1)" clip-path="none"></g></g><text x="300" text-anchor="middle" class="highcharts-subtitle" data-z-index="4" style="color:#666666;fill:#666666;" y="54"></text><text x="0" text-anchor="start" class="highcharts-caption" data-z-index="4" style="color:#666666;fill:#666666;" y="372"></text><text x="300" text-anchor="middle" class="highcharts-title" data-z-index="4" style="color:#333333;font-size:18px;fill:#333333;" y="218">10分钟内重复访问的VID</text><g class="highcharts-data-labels highcharts-series-0 highcharts-pie-series" data-z-index="6" opacity="1" transform="translate(0,40) scale(1 1)"><path fill="none" class="highcharts-data-label-connector highcharts-color-0" stroke="#696969" stroke-width="1" d="M 390.14722507198917 18.404681138016805 C 385.14722507198917 18.404681138016805 376.2879762205684 34.07355824683587 373.33489327009477 39.296517282442224 L 370.38181031962114 44.519476318048575"></path><path fill="none" class="highcharts-data-label-connector highcharts-color-1" stroke="#6AA4E7" stroke-width="1" d="M 427.6365339712069 291.02163961990107 C 422.6365339712069 291.02163961990107 409.8766633846073 278.32574648025815 405.62337318907413 274.0937821003772 L 401.37008299354096 269.8618177204963"></path><path fill="none" class="highcharts-data-label-connector highcharts-color-2" stroke="#82ED6B" stroke-width="1" d="M 159.74799458238576 276.86980592600344 C 164.74799458238576 276.86980592600344 178.82045757381383 265.64635791058106 183.5112785709565 261.905208572107 L 188.2020995680992 258.1640592336329"></path><path fill="none" class="highcharts-data-label-connector highcharts-color-3" stroke="#F2924A" stroke-width="1" d="M 155.13595971665956 67.18128739951518 C 160.13595971665956 67.18128739951518 174.68828760741178 77.77514188973905 179.53906357099584 81.30642671981366 L 184.3898395345799 84.83771154988827"></path><g class="highcharts-label highcharts-data-label highcharts-data-label-color-0" data-z-index="1" style="cursor:pointer;" transform="translate(395,8)"><text x="5" data-z-index="1" y="16" style="color:black;font-size:11px;font-weight:bold;fill:black;"><tspan class="highcharts-text-outline" fill="#FFFFFF" stroke="#FFFFFF" stroke-width="2px" stroke-linejoin="round" style="">少于2次 <tspan class="highcharts-br" dy="14" x="5">​</tspan> 16.4 %<tspan x="5" y="16">​</tspan></tspan>少于2次 <tspan class="highcharts-br" dy="14" x="5">​</tspan> 16.4 %</text></g><g class="highcharts-label highcharts-data-label highcharts-data-label-color-1" data-z-index="1" style="cursor:pointer;" transform="translate(433,281)"><text x="5" data-z-index="1" y="16" style="color:black;font-size:11px;font-weight:bold;fill:black;"><tspan class="highcharts-text-outline" fill="#FFFFFF" stroke="#FFFFFF" stroke-width="2px" stroke-linejoin="round" style="">2-20次 <tspan class="highcharts-br" dy="14" x="5">​</tspan> 42.2 %<tspan x="5" y="16">​</tspan></tspan>2-20次 <tspan class="highcharts-br" dy="14" x="5">​</tspan> 42.2 %</text></g><g class="highcharts-label highcharts-data-label highcharts-data-label-color-2" data-z-index="1" style="cursor:pointer;" transform="translate(94,267)"><text x="5" data-z-index="1" y="16" style="color:black;font-size:11px;font-weight:bold;fill:black;"><tspan class="highcharts-text-outline" fill="#FFFFFF" stroke="#FFFFFF" stroke-width="2px" stroke-linejoin="round" style="">20-50次 <tspan class="highcharts-br" dy="14" x="5">​</tspan> 11.5 %<tspan x="5" y="16">​</tspan></tspan>20-50次 <tspan class="highcharts-br" dy="14" x="5">​</tspan> 11.5 %</text></g><g class="highcharts-label highcharts-data-label highcharts-data-label-color-3" data-z-index="1" style="cursor:pointer;" transform="translate(89,57)"><text x="5" data-z-index="1" y="16" style="color:black;font-size:11px;font-weight:bold;fill:black;"><tspan class="highcharts-text-outline" fill="#FFFFFF" stroke="#FFFFFF" stroke-width="2px" stroke-linejoin="round" style="">50次以上 <tspan class="highcharts-br" dy="14" x="5">​</tspan> 30.0 %<tspan x="5" y="16">​</tspan></tspan>50次以上 <tspan class="highcharts-br" dy="14" x="5">​</tspan> 30.0 %</text></g></g><g class="highcharts-legend highcharts-no-tooltip" data-z-index="7"><rect fill="none" class="highcharts-legend-box" rx="0" ry="0" x="0" y="0" width="8" height="8" visibility="hidden"></rect><g data-z-index="1"><g></g></g></g><text x="590" class="highcharts-credits" text-anchor="end" data-z-index="8" style="cursor:pointer;color:#999999;font-size:9px;fill:#999999;" y="380">https://ForrestSu.github.io</text></svg>